<svg xmlns="http://www.w3.org/2000/svg" width="17.414" height="21.953" viewBox="0 0 17.414 21.953">
    <path fill="#040405" d="M19.679 20.246c-.021-.375-.507-9.239-.9-12.751a3.074 3.074 0 0 0-3.234-2.953h-.8v-1.75A2.752 2.752 0 0 0 12 .042h-2a2.752 2.752 0 0 0-2.75 2.75v1.751H6.5a3.1 3.1 0 0 0-3.281 2.951c-.391 3.513-.877 12.377-.9 12.752l-.028.526.485.206C2.876 21.02 5.248 22 11 22s8.124-.975 8.222-1.017l.485-.206zM8.75 2.792A1.251 1.251 0 0 1 10 1.542h2a1.251 1.251 0 0 1 1.25 1.25v1.75h-4.5zM11 20.5a27.237 27.237 0 0 1-7.148-.742c.116-2.065.528-9.131.857-12.093a1.616 1.616 0 0 1 1.744-1.623h.8v3.75h1.5v-3.75h4.5v3.75h1.5V6.04h.84a1.615 1.615 0 0 1 1.7 1.62c.329 2.962.741 10.028.857 12.093A27.257 27.257 0 0 1 11 20.5z" transform="translate(-2.293 -.042)"/>
</svg>
